<?xml version="1.0" encoding="UTF-8"?>
<svg width="18px" height="18px" viewBox="0 0 18 18" version="1.1" xmlns="http://www.w3.org/2000/svg" xmlns:xlink="http://www.w3.org/1999/xlink">
    <!-- Generator: Sketch 52.5 (67469) - http://www.bohemiancoding.com/sketch -->
    <title>iconfont-yuanquan copy 3</title>
    <desc>Created with Sketch.</desc>
    <g id="Page-1" stroke="none" stroke-width="1" fill="none" fill-rule="evenodd">
        <g id="意见反馈" transform="translate(-179.000000, -148.000000)" fill="#888888">
            <g id="Group" transform="translate(19.000000, 80.000000)">
                <g id="问题分类" transform="translate(1.000000, 0.000000)">
                    <path d="M167.999896,68.0001036 C163.029358,68.0001036 159,72.0295655 159,77 C159,81.9705381 163.029462,86 167.999896,86 C172.970435,86 176.999896,81.9705381 176.999896,77 C176.999896,72.0294619 172.970435,68.0001036 167.999896,68.0001036 L167.999896,68.0001036 Z M167.999896,85.1412835 C163.503652,85.1412835 159.858613,81.4963482 159.858613,77 C159.858613,72.5037295 163.503652,68.8587165 167.999896,68.8587165 C172.496245,68.8587165 176.14118,72.5037295 176.14118,77 C176.14118,81.4963482 172.496245,85.1412835 167.999896,85.1412835 L167.999896,85.1412835 Z" id="iconfont-yuanquan-copy-3"></path>
                </g>
            </g>
        </g>
    </g>
</svg>